<svg xmlns="http://www.w3.org/2000/svg" viewBox="0 0 28 28">
	<path
		d="M 14 0 A 14.017359 13.98262 45.000322 0 0 0 13.964844 A 14.017359 13.98262 45.000322 0 0 14 28 A 14.017359 13.98262 45.000322 0 0 28 14.035156 A 14.017359 13.98262 45.000322 0 0 14 0 z M 8.5 5.203125 C 9.466 5.203125 10.25 5.99475 10.25 6.96875 C 10.25 7.94275 9.467 8.7324219 8.5 8.7324219 C 7.534 8.7324219 6.75 7.94275 6.75 6.96875 C 6.75 5.99475 7.534 5.203125 8.5 5.203125 z M 7 10 L 10 10 L 10 21 L 7 21 L 7 10 z M 12 10 L 15 10 L 15 11.765625 C 16.396 9.1796247 22 8.9872345 22 14.240234 L 22 21 L 19 21 L 19 15.396484 C 19 12.028484 15 12.283484 15 15.396484 L 15 21 L 12 21 L 12 10 z "
		fill="#fff"/>
</svg>
