<?xml version="1.0" encoding="UTF-8" standalone="no"?>
<svg
   width="1.04444in"
   height="1.53333in"
   viewBox="0 0 94 138"
   version="1.1"
   id="svg3"
   sodipodi:docname="test2.svg"
   inkscape:version="1.1 (c68e22c387, 2021-05-23)"
   xmlns:inkscape="http://www.inkscape.org/namespaces/inkscape"
   xmlns:sodipodi="http://sodipodi.sourceforge.net/DTD/sodipodi-0.dtd"
   xmlns="http://www.w3.org/2000/svg"
   xmlns:svg="http://www.w3.org/2000/svg">
  <defs
     id="defs7" />
  <sodipodi:namedview
     id="namedview5"
     pagecolor="#505050"
     bordercolor="#ffffff"
     borderopacity="1"
     inkscape:pageshadow="0"
     inkscape:pageopacity="0"
     inkscape:pagecheckerboard="1"
     inkscape:document-units="in"
     showgrid="false"
     inkscape:zoom="8.0894731"
     inkscape:cx="61.499679"
     inkscape:cy="100.6246"
     inkscape:window-width="1920"
     inkscape:window-height="1028"
     inkscape:window-x="-6"
     inkscape:window-y="-6"
     inkscape:window-maximized="1"
     inkscape:current-layer="svg3" />
  <path
     id="path18"
     fill="none"
     stroke="black"
     stroke-width="1"
     d="m 62.600566,8.3311691 c 11.87,0 4.474785,39.2753769 0.254785,48.2153769 -3.61,7.66 -15.347472,24.305753 -24.987472,24.305753 -11.56,0 -9.592689,-23.540515 -4.992689,-33.300515 2.5,-5.29 14.32795,-22.404918 19.955626,-23.973514 -1.35,4.54 2.81432,10.085142 0.97432,13.995142 -1.27,2.68 -5.937933,9.55197 -7.287933,12.42197 -2.2,4.65 -7.599689,13.082132 -2.299689,13.082132 4.75,0 8.496433,-6.691243 10.226433,-10.361243 3.54,-7.51 13.443026,-34.894326 3.543026,-34.894326 -11.4,0 -26.735529,24.293361 -30.855529,33.013361 C 19.791444,66.395306 21.85,86.86 38.58,86.86 c 11.31,0 20.6,-10.88 25.1,-20.39 2.67,-5.67 4.13,-11.32 4.7,-16.63 l 2.19,-0.41 c 0.49,14.65 17.93675,40.365062 11.34675,54.33506 -8.43,17.88 -37.0291,20.39375 -51.4291,26.73375 -3.02,-7.08 -10.917724,-18.73771 -16.697724,-23.76771 12.85,-4.32 47.176345,-12.283586 54.046345,-26.833586 C 70.716271,73.787514 71.19,65.28 67.86,61.84 67.29,64 66.991687,70.625187 65.951687,72.835187 c -5.87,12.46 -20.590645,20.972729 -33.560645,20.972729 -18.06,0 -25.3243207,-21.403514 -16.82432,-39.423514 5.1,-10.81 33.563844,-46.0532329 47.033844,-46.0532329 M 21.678701,95.304649 21.215133,98.086053 c -7.12,2.489997 -13.0803227,8.435027 -9.200323,14.755027 l 7.326433,10.81124 c 2.81,4.52 4.282016,8.52696 9.682016,10.70696 5.12,2.07 19.604417,-4.34712 25.324417,-6.17712 7.55,-2.41 14.903406,-4.76589 21.493406,-9.21589 22.59,-15.25 10.311466,-37.29867 4.221466,-58.11867 L 75.719365,49.458437 c -0.96,-3.45 -1.735073,-3.524937 -2.512865,-8.895062 l 0.7,-14.710646 V 16.016625 C 72.2165,7.3666251 69.14,3.8884373 60,4.7984373 c -8.21,0.81 -12.799587,4.9202887 -18.829587,10.1702887 -5.598312,6.109479 -9.759671,9.693896 -14.699671,15.873896 -8.85,11.08 -18.643927,23.90278 -19.233927,38.60278 -0.42,10.33 4.591885,21.199247 14.441886,25.859247 z M 31,40 v 1"
     style="fill:#ffffff;fill-opacity:1;stroke:none;stroke-opacity:1"
     sodipodi:nodetypes="ccsccccscscscccccccccsccccccccccccccccccccc" />
</svg>
