<svg xmlns="http://www.w3.org/2000/svg" viewBox="0 0 1782 2500">
	<path fill="#fff"
		d="M 872.00,1364.00
           C 872.97,1360.10 870.94,1357.31 868.99,1354.00
             868.99,1354.00 856.53,1336.00 856.53,1336.00
             856.53,1336.00 807.17,1263.00 807.17,1263.00
             775.63,1214.95 741.57,1152.38 720.40,1099.00
             710.26,1073.44 696.32,1029.19 696.00,1002.00
             695.61,968.07 708.14,936.17 724.72,907.00
             751.18,860.45 785.59,820.99 821.91,782.00
             821.91,782.00 870.00,733.00 870.00,733.00
             870.00,733.00 904.00,699.04 904.00,699.04
             904.00,699.04 935.00,669.96 935.00,669.96
             935.00,669.96 995.00,612.04 995.00,612.04
             1023.53,584.75 1053.47,558.64 1078.58,528.00
             1115.93,482.41 1142.64,429.50 1155.65,372.00
             1159.31,355.84 1161.93,339.52 1163.09,323.00
             1163.09,323.00 1164.00,313.00 1164.00,313.00
             1164.00,313.00 1165.00,285.00 1165.00,285.00
             1165.00,285.00 1164.00,265.00 1164.00,265.00
             1163.92,248.61 1158.92,217.60 1155.60,201.00
             1153.33,189.63 1147.55,164.10 1143.55,154.00
             1139.49,143.72 1134.07,133.75 1127.24,125.02
             1122.90,119.46 1117.47,118.14 1118.17,127.00
             1118.17,127.00 1120.92,144.00 1120.92,144.00
             1120.92,144.00 1123.83,167.00 1123.83,167.00
             1123.83,167.00 1125.00,216.00 1125.00,216.00
             1125.00,216.00 1124.09,226.00 1124.09,226.00
             1122.59,247.76 1119.17,268.82 1113.87,290.00
             1096.96,357.67 1061.42,421.00 1013.91,472.00
             974.93,513.84 920.83,554.68 876.00,591.42
             828.20,630.60 780.87,670.41 735.00,711.83
             688.15,754.15 635.07,805.87 603.72,861.00
             585.76,892.59 573.61,927.24 577.17,964.00
             579.69,990.02 591.43,1014.33 603.69,1037.00
             616.12,1059.98 629.63,1081.75 644.86,1103.00
             675.48,1145.72 708.12,1186.55 742.85,1226.00
             742.85,1226.00 782.09,1270.01 782.09,1270.01
             782.09,1270.01 835.00,1326.00 835.00,1326.00
             835.00,1326.00 872.00,1364.00 872.00,1364.00 Z
           M 967.00,1448.00
           C 975.22,1447.41 986.95,1438.04 994.00,1433.33
             1014.95,1419.36 1037.37,1401.98 1056.00,1385.07
             1077.15,1365.88 1097.95,1345.01 1113.66,1321.00
             1132.40,1292.35 1143.16,1265.54 1143.00,1231.00
             1142.92,1213.43 1137.08,1193.51 1131.34,1177.00
             1114.40,1128.18 1084.96,1088.00 1057.31,1045.00
             1037.58,1014.31 1017.49,981.48 1016.04,944.00
             1015.86,939.47 1016.39,938.14 1016.84,934.00
             1018.68,916.72 1022.99,902.57 1030.75,887.00
             1046.58,855.26 1068.99,827.01 1094.00,802.00
             1094.00,802.00 1128.00,769.17 1128.00,769.17
             1177.84,724.10 1248.31,674.36 1305.00,637.34
             1305.00,637.34 1386.00,586.00 1386.00,586.00
             1386.00,586.00 1386.00,584.00 1386.00,584.00
             1379.40,582.27 1372.32,585.37 1366.00,587.34
             1366.00,587.34 1328.00,599.33 1328.00,599.33
             1276.56,616.48 1225.82,636.11 1177.00,659.74
             1177.00,659.74 1143.00,676.26 1143.00,676.26
             1069.07,714.40 984.89,770.82 936.29,839.00
             911.24,874.15 894.32,910.95 888.72,954.00
             888.72,954.00 887.00,972.00 887.00,972.00
             887.00,972.00 887.00,991.00 887.00,991.00
             887.04,1013.77 895.35,1050.60 903.42,1072.00
             918.62,1112.29 934.09,1133.45 958.28,1168.00
             958.28,1168.00 985.71,1207.00 985.71,1207.00
             1007.43,1237.49 1031.72,1272.19 1032.96,1311.00
             1033.08,1314.80 1032.52,1316.50 1032.17,1320.00
             1031.45,1327.15 1030.54,1334.04 1028.57,1341.00
             1022.06,1363.97 1002.42,1394.97 989.00,1415.00
             983.57,1423.10 969.53,1440.05 967.00,1448.00 Z
           M 1430.00,1388.00
           C 1430.00,1388.00 1447.00,1385.28 1447.00,1385.28
             1447.00,1385.28 1482.33,1382.67 1482.33,1382.67
             1504.91,1382.43 1529.46,1384.65 1551.00,1391.67
             1569.50,1397.70 1584.56,1404.64 1599.00,1418.09
             1610.61,1428.90 1619.89,1441.29 1625.99,1456.00
             1632.53,1471.77 1636.75,1488.95 1637.91,1506.00
             1639.16,1524.30 1632.39,1550.01 1625.60,1567.00
             1605.33,1617.67 1568.72,1654.18 1530.00,1691.04
             1530.00,1691.04 1488.00,1726.60 1488.00,1726.60
             1463.58,1746.13 1437.28,1763.42 1411.00,1780.31
             1411.00,1780.31 1388.00,1794.58 1388.00,1794.58
             1383.74,1797.23 1378.62,1799.59 1376.00,1804.00
             1385.19,1803.92 1403.68,1797.76 1413.00,1794.67
             1413.00,1794.67 1435.00,1787.66 1435.00,1787.66
             1435.00,1787.66 1473.00,1773.68 1473.00,1773.68
             1497.28,1764.70 1522.12,1752.85 1545.00,1740.78
             1602.00,1710.71 1654.68,1673.41 1693.27,1621.00
             1704.98,1605.08 1717.16,1583.84 1723.26,1565.00
             1737.07,1522.32 1731.71,1475.92 1707.56,1438.00
             1696.49,1420.60 1679.71,1404.52 1663.00,1392.58
             1614.01,1357.57 1560.94,1347.11 1502.00,1356.59
             1483.80,1359.52 1463.06,1364.69 1447.00,1373.87
             1441.10,1377.25 1433.15,1381.88 1430.00,1388.00 Z
           M 1363.00,1460.00
           C 1363.00,1460.00 1271.00,1474.28 1271.00,1474.28
             1271.00,1474.28 1196.00,1484.72 1196.00,1484.72
             1196.00,1484.72 1055.00,1500.17 1055.00,1500.17
             1055.00,1500.17 971.00,1507.91 971.00,1507.91
             971.00,1507.91 908.17,1512.15 908.17,1512.15
             908.17,1512.15 863.17,1515.15 863.17,1515.15
             863.17,1515.15 836.00,1517.00 836.00,1517.00
             836.00,1517.00 787.00,1519.00 787.00,1519.00
             787.00,1519.00 656.00,1519.00 656.00,1519.00
             656.00,1519.00 644.18,1518.18 644.18,1518.18
             644.18,1518.18 618.00,1518.18 618.00,1518.18
             618.00,1518.18 590.00,1517.00 590.00,1517.00
             590.00,1517.00 573.00,1516.00 573.00,1516.00
             573.00,1516.00 556.91,1515.07 556.91,1515.07
             519.62,1513.39 481.94,1510.31 445.00,1504.58
             429.71,1502.20 409.66,1498.24 396.00,1491.02
             390.54,1488.13 383.02,1481.84 383.74,1474.96
             384.35,1469.20 390.12,1462.29 394.17,1458.42
             405.14,1447.93 417.53,1441.38 431.00,1434.76
             465.26,1417.91 508.25,1404.63 545.00,1393.72
             545.00,1393.72 581.00,1383.71 581.00,1383.71
             585.93,1382.29 593.08,1381.14 597.00,1377.92
             589.08,1375.93 577.17,1377.02 569.00,1377.92
             569.00,1377.92 516.00,1384.73 516.00,1384.73
             450.04,1394.45 357.20,1420.31 296.00,1446.42
             277.76,1454.20 247.15,1468.74 232.00,1480.67
             225.67,1485.66 216.04,1494.56 215.20,1503.00
             214.15,1513.45 223.91,1520.31 232.00,1524.69
             247.63,1533.17 279.04,1540.97 297.00,1544.79
             340.44,1554.02 414.93,1561.99 460.00,1565.09
             460.00,1565.09 499.00,1568.09 499.00,1568.09
             499.00,1568.09 510.00,1569.00 510.00,1569.00
             510.00,1569.00 542.00,1571.00 542.00,1571.00
             542.00,1571.00 568.00,1572.00 568.00,1572.00
             568.00,1572.00 583.00,1573.00 583.00,1573.00
             583.00,1573.00 649.00,1575.00 649.00,1575.00
             649.00,1575.00 669.00,1576.00 669.00,1576.00
             669.00,1576.00 717.00,1576.00 717.00,1576.00
             717.00,1576.00 777.00,1574.00 777.00,1574.00
             777.00,1574.00 790.00,1573.00 790.00,1573.00
             790.00,1573.00 815.00,1572.00 815.00,1572.00
             815.00,1572.00 825.00,1571.09 825.00,1571.09
             825.00,1571.09 850.00,1569.91 850.00,1569.91
             850.00,1569.91 870.00,1568.09 870.00,1568.09
             870.00,1568.09 1019.00,1554.16 1019.00,1554.16
             1019.00,1554.16 1178.00,1534.42 1178.00,1534.42
             1178.00,1534.42 1234.00,1526.28 1234.00,1526.28
             1234.00,1526.28 1270.00,1520.45 1270.00,1520.45
             1275.84,1518.40 1284.50,1512.50 1290.00,1509.05
             1290.00,1509.05 1322.00,1489.40 1322.00,1489.40
             1322.00,1489.40 1352.00,1470.81 1352.00,1470.81
             1357.19,1467.63 1361.90,1466.45 1363.00,1460.00 Z
           M 1276.00,1753.00
           C 1276.00,1753.00 1254.00,1744.34 1254.00,1744.34
             1240.49,1738.31 1227.91,1730.62 1216.00,1721.85
             1203.98,1712.99 1191.96,1698.14 1176.00,1698.74
             1176.00,1698.74 1119.00,1707.57 1119.00,1707.57
             1119.00,1707.57 1026.00,1719.84 1026.00,1719.84
             1026.00,1719.84 911.00,1730.09 911.00,1730.09
             911.00,1730.09 864.00,1733.04 864.00,1733.04
             864.00,1733.04 853.00,1734.00 853.00,1734.00
             853.00,1734.00 802.00,1736.00 802.00,1736.00
             802.00,1736.00 784.00,1737.00 784.00,1737.00
             784.00,1737.00 760.00,1737.00 760.00,1737.00
             760.00,1737.00 737.00,1738.00 737.00,1738.00
             737.00,1738.00 670.00,1737.00 670.00,1737.00
             670.00,1737.00 647.00,1736.00 647.00,1736.00
             647.00,1736.00 628.00,1735.00 628.00,1735.00
             628.00,1735.00 608.00,1733.17 608.00,1733.17
             587.10,1731.14 570.61,1728.75 550.00,1724.60
             534.99,1721.57 517.35,1715.81 505.00,1706.62
             498.90,1702.08 492.72,1695.82 491.33,1688.00
             487.96,1669.09 508.75,1653.71 515.00,1643.00
             485.95,1646.92 453.33,1659.38 430.00,1677.13
             413.81,1689.45 400.53,1708.12 399.74,1729.00
             398.73,1755.79 423.96,1768.10 445.00,1777.13
             471.14,1788.35 500.10,1794.39 528.00,1799.42
             552.03,1803.76 585.00,1809.40 609.00,1811.02
             609.00,1811.02 646.00,1814.83 646.00,1814.83
             646.00,1814.83 681.00,1817.09 681.00,1817.09
             681.00,1817.09 707.00,1819.04 707.00,1819.04
             707.00,1819.04 719.00,1819.04 719.00,1819.04
             719.00,1819.04 731.00,1820.00 731.00,1820.00
             731.00,1820.00 799.00,1822.00 799.00,1822.00
             799.00,1822.00 817.00,1823.00 817.00,1823.00
             817.00,1823.00 891.00,1823.00 891.00,1823.00
             891.00,1823.00 910.00,1822.00 910.00,1822.00
             910.00,1822.00 942.00,1820.00 942.00,1820.00
             942.00,1820.00 951.00,1820.00 951.00,1820.00
             951.00,1820.00 968.00,1818.17 968.00,1818.17
             968.00,1818.17 1003.00,1814.84 1003.00,1814.84
             1039.83,1810.89 1076.68,1804.42 1113.00,1797.20
             1147.03,1790.43 1180.46,1781.74 1214.00,1772.88
             1228.85,1768.96 1263.50,1759.40 1276.00,1753.00 Z
           M 1241.00,2002.00
           C 1238.48,1998.11 1234.16,1997.32 1230.00,1995.58
             1230.00,1995.58 1209.00,1986.24 1209.00,1986.24
             1187.13,1975.49 1165.89,1964.20 1145.00,1951.60
             1134.54,1945.29 1122.73,1935.53 1110.00,1936.04
             1110.00,1936.04 1073.00,1944.20 1073.00,1944.20
             1047.16,1949.26 1020.19,1953.21 994.00,1955.83
             994.00,1955.83 951.00,1960.00 951.00,1960.00
             951.00,1960.00 941.00,1960.00 941.00,1960.00
             941.00,1960.00 915.00,1962.00 915.00,1962.00
             915.00,1962.00 902.00,1963.00 902.00,1963.00
             902.00,1963.00 882.00,1964.00 882.00,1964.00
             882.00,1964.00 851.00,1965.00 851.00,1965.00
             851.00,1965.00 832.00,1966.00 832.00,1966.00
             832.00,1966.00 750.00,1966.00 750.00,1966.00
             750.00,1966.00 729.00,1965.00 729.00,1965.00
             729.00,1965.00 707.00,1965.00 707.00,1965.00
             707.00,1965.00 686.00,1964.00 686.00,1964.00
             686.00,1964.00 668.00,1963.00 668.00,1963.00
             649.58,1962.97 618.54,1960.24 601.00,1955.29
             584.36,1950.59 561.29,1944.50 555.10,1926.00
             550.61,1912.58 562.76,1905.00 564.00,1894.00
             543.18,1897.79 529.73,1902.85 511.00,1912.70
             501.74,1917.58 490.35,1924.43 483.17,1932.04
             467.79,1948.32 461.81,1968.96 474.23,1989.00
             478.06,1995.17 483.49,2000.99 489.00,2005.70
             502.96,2017.65 523.83,2026.94 541.00,2033.42
             574.41,2046.04 614.63,2055.52 650.00,2060.73
             692.93,2067.05 735.71,2070.67 779.00,2073.08
             779.00,2073.08 815.00,2075.00 815.00,2075.00
             815.00,2075.00 856.33,2075.67 856.33,2075.67
             856.33,2075.67 880.00,2075.00 880.00,2075.00
             919.56,2074.71 972.93,2068.54 1012.00,2061.75
             1066.73,2052.25 1120.70,2039.16 1174.00,2023.58
             1174.00,2023.58 1219.00,2010.00 1219.00,2010.00
             1219.00,2010.00 1241.00,2002.00 1241.00,2002.00 Z
           M 1594.00,2083.00
           C 1598.75,2094.02 1604.41,2103.44 1601.54,2116.01
             1598.98,2127.20 1586.28,2136.80 1577.00,2142.58
             1552.21,2158.01 1523.91,2165.63 1496.00,2173.15
             1426.33,2191.91 1326.71,2203.13 1254.00,2210.17
             1254.00,2210.17 1148.00,2219.09 1148.00,2219.09
             1148.00,2219.09 1118.00,2221.09 1118.00,2221.09
             1118.00,2221.09 1107.00,2222.00 1107.00,2222.00
             1107.00,2222.00 1070.00,2224.00 1070.00,2224.00
             1070.00,2224.00 1052.00,2225.00 1052.00,2225.00
             1052.00,2225.00 1035.00,2226.00 1035.00,2226.00
             1035.00,2226.00 1011.00,2227.00 1011.00,2227.00
             1011.00,2227.00 995.00,2228.04 995.00,2228.04
             995.00,2228.04 982.00,2228.04 982.00,2228.04
             982.00,2228.04 970.00,2229.00 970.00,2229.00
             970.00,2229.00 947.00,2230.00 947.00,2230.00
             947.00,2230.00 908.00,2231.00 908.00,2231.00
             908.00,2231.00 893.00,2232.00 893.00,2232.00
             893.00,2232.00 836.00,2233.00 836.00,2233.00
             836.00,2233.00 819.00,2234.00 819.00,2234.00
             819.00,2234.00 779.00,2234.00 779.00,2234.00
             779.00,2234.00 754.00,2235.00 754.00,2235.00
             754.00,2235.00 640.00,2235.00 640.00,2235.00
             640.00,2235.00 623.00,2234.00 623.00,2234.00
             623.00,2234.00 572.00,2231.00 572.00,2231.00
             572.00,2231.00 563.00,2231.00 563.00,2231.00
             563.00,2231.00 442.00,2220.83 442.00,2220.83
             442.00,2220.83 392.00,2215.00 392.00,2215.00
             392.00,2215.00 363.00,2211.28 363.00,2211.28
             363.00,2211.28 299.00,2201.42 299.00,2201.42
             276.60,2197.38 243.18,2190.70 222.00,2183.67
             208.84,2179.30 197.15,2174.82 186.00,2166.25
             180.90,2162.33 175.49,2155.92 176.37,2149.00
             176.72,2146.20 178.46,2142.49 179.79,2140.00
             188.52,2123.73 206.09,2115.68 222.00,2108.22
             256.70,2091.95 296.55,2083.29 334.00,2075.80
             334.00,2075.80 391.00,2066.00 391.00,2066.00
             391.00,2066.00 391.00,2064.00 391.00,2064.00
             391.00,2064.00 352.00,2062.00 352.00,2062.00
             352.00,2062.00 339.99,2062.92 339.99,2062.92
             311.12,2064.57 282.48,2068.44 254.00,2073.58
             207.35,2081.99 153.54,2095.59 110.00,2114.15
             87.68,2123.66 58.70,2139.54 43.90,2159.00
             38.05,2166.69 31.47,2179.20 31.04,2189.00
             30.42,2203.25 39.16,2212.40 50.00,2220.14
             67.80,2232.85 98.64,2243.07 120.00,2248.63
             189.24,2266.64 260.00,2274.38 331.00,2281.17
             331.00,2281.17 380.00,2285.09 380.00,2285.09
             380.00,2285.09 399.00,2287.00 399.00,2287.00
             399.00,2287.00 408.00,2287.00 408.00,2287.00
             408.00,2287.00 433.00,2289.00 433.00,2289.00
             433.00,2289.00 467.00,2291.00 467.00,2291.00
             467.00,2291.00 518.00,2293.00 518.00,2293.00
             518.00,2293.00 537.00,2294.00 537.00,2294.00
             537.00,2294.00 552.00,2294.00 552.00,2294.00
             552.00,2294.00 567.00,2295.00 567.00,2295.00
             567.00,2295.00 590.00,2295.00 590.00,2295.00
             590.00,2295.00 605.00,2296.00 605.00,2296.00
             605.00,2296.00 653.00,2296.00 653.00,2296.00
             653.00,2296.00 684.00,2297.00 684.00,2297.00
             684.00,2297.00 745.00,2297.00 745.00,2297.00
             745.00,2297.00 776.00,2296.00 776.00,2296.00
             776.00,2296.00 815.00,2296.00 815.00,2296.00
             815.00,2296.00 838.00,2295.00 838.00,2295.00
             838.00,2295.00 864.00,2295.00 864.00,2295.00
             864.00,2295.00 876.00,2294.04 876.00,2294.04
             876.00,2294.04 892.00,2294.04 892.00,2294.04
             892.00,2294.04 910.00,2293.00 910.00,2293.00
             910.00,2293.00 947.00,2292.00 947.00,2292.00
             947.00,2292.00 970.00,2291.00 970.00,2291.00
             970.00,2291.00 986.00,2290.00 986.00,2290.00
             986.00,2290.00 1013.00,2289.00 1013.00,2289.00
             1013.00,2289.00 1026.00,2288.00 1026.00,2288.00
             1026.00,2288.00 1064.00,2286.00 1064.00,2286.00
             1064.00,2286.00 1074.00,2285.09 1074.00,2285.09
             1074.00,2285.09 1114.00,2282.09 1114.00,2282.09
             1156.07,2279.16 1198.12,2275.07 1240.00,2269.72
             1240.00,2269.72 1339.00,2253.58 1339.00,2253.58
             1370.57,2247.88 1402.10,2240.01 1433.00,2231.42
             1484.36,2217.14 1535.48,2199.91 1581.00,2171.58
             1594.52,2163.16 1604.12,2155.66 1615.02,2144.00
             1620.60,2138.04 1625.75,2131.51 1625.98,2123.00
             1626.18,2115.86 1625.28,2112.17 1621.54,2106.00
             1618.99,2101.79 1615.50,2097.48 1611.99,2094.04
             1606.95,2089.11 1601.05,2084.34 1594.00,2083.00 Z
           M 352.00,2345.00
           C 357.62,2350.89 366.44,2352.08 374.00,2354.15
             374.00,2354.15 418.00,2366.01 418.00,2366.01
             473.92,2381.26 558.98,2395.36 617.00,2401.17
             617.00,2401.17 648.42,2404.74 648.42,2404.74
             648.42,2404.74 706.00,2409.09 706.00,2409.09
             706.00,2409.09 724.00,2410.85 724.00,2410.85
             724.00,2410.85 750.00,2412.08 750.00,2412.08
             750.00,2412.08 765.00,2413.00 765.00,2413.00
             765.00,2413.00 807.91,2414.60 807.91,2414.60
             807.91,2414.60 839.00,2415.26 839.00,2415.26
             839.00,2415.26 873.00,2415.86 873.00,2415.86
             873.00,2415.86 914.00,2415.86 914.00,2415.86
             914.00,2415.86 947.00,2415.86 947.00,2415.86
             947.00,2415.86 961.00,2415.00 961.00,2415.00
             961.00,2415.00 993.00,2414.00 993.00,2414.00
             993.00,2414.00 1020.00,2413.00 1020.00,2413.00
             1020.00,2413.00 1046.68,2411.81 1046.68,2411.81
             1046.68,2411.81 1072.00,2410.00 1072.00,2410.00
             1072.00,2410.00 1128.00,2406.17 1128.00,2406.17
             1128.00,2406.17 1148.83,2404.85 1148.83,2404.85
             1148.83,2404.85 1199.00,2400.17 1199.00,2400.17
             1279.90,2392.33 1360.29,2380.99 1440.00,2364.80
             1517.94,2348.97 1598.72,2322.01 1665.00,2277.33
             1681.30,2266.34 1698.43,2251.14 1710.92,2236.00
             1719.88,2225.12 1728.00,2212.20 1730.00,2198.00
             1722.89,2200.72 1705.32,2214.40 1698.00,2219.58
             1685.57,2228.37 1659.68,2243.79 1646.00,2250.63
             1577.10,2285.08 1508.02,2306.92 1433.00,2323.58
             1348.73,2342.29 1263.77,2352.96 1178.00,2361.17
             1178.00,2361.17 1123.00,2366.00 1123.00,2366.00
             1123.00,2366.00 1114.00,2366.00 1114.00,2366.00
             1114.00,2366.00 1082.00,2368.00 1082.00,2368.00
             1082.00,2368.00 1069.00,2369.00 1069.00,2369.00
             1069.00,2369.00 1040.00,2370.00 1040.00,2370.00
             1040.00,2370.00 1027.00,2371.00 1027.00,2371.00
             1027.00,2371.00 981.00,2372.00 981.00,2372.00
             981.00,2372.00 960.00,2373.00 960.00,2373.00
             960.00,2373.00 924.00,2373.00 924.00,2373.00
             924.00,2373.00 801.00,2373.00 801.00,2373.00
             801.00,2373.00 782.00,2372.00 782.00,2372.00
             782.00,2372.00 762.00,2372.00 762.00,2372.00
             762.00,2372.00 745.00,2371.00 745.00,2371.00
             745.00,2371.00 731.00,2371.00 731.00,2371.00
             731.00,2371.00 716.91,2370.03 716.91,2370.03
             716.91,2370.03 704.00,2370.03 704.00,2370.03
             704.00,2370.03 689.00,2369.00 689.00,2369.00
             689.00,2369.00 659.00,2368.00 659.00,2368.00
             659.00,2368.00 645.00,2367.00 645.00,2367.00
             645.00,2367.00 620.00,2366.00 620.00,2366.00
             620.00,2366.00 605.00,2365.00 605.00,2365.00
             605.00,2365.00 568.00,2363.00 568.00,2363.00
             568.00,2363.00 558.00,2362.09 558.00,2362.09
             558.00,2362.09 511.00,2358.83 511.00,2358.83
             511.00,2358.83 409.00,2349.83 409.00,2349.83
             409.00,2349.83 352.00,2345.00 352.00,2345.00 Z" />
</svg>
