<?xml version="1.0" encoding="UTF-8" standalone="no"?>
<svg
   width="4.0140657in"
   height="3.7135069in"
   viewBox="0 0 289.01251 267.3723"
   version="1.1"
   id="svg3"
   sodipodi:docname="reactor.svg"
   inkscape:version="1.2.1 (9c6d41e410, 2022-07-14)"
   xmlns:inkscape="http://www.inkscape.org/namespaces/inkscape"
   xmlns:sodipodi="http://sodipodi.sourceforge.net/DTD/sodipodi-0.dtd"
   xmlns="http://www.w3.org/2000/svg"
   xmlns:svg="http://www.w3.org/2000/svg">
  <defs
     id="defs7" />
  <sodipodi:namedview
     id="namedview5"
     pagecolor="#ffffff"
     bordercolor="#000000"
     borderopacity="0.25"
     inkscape:showpageshadow="2"
     inkscape:pageopacity="0.0"
     inkscape:pagecheckerboard="0"
     inkscape:deskcolor="#d1d1d1"
     inkscape:document-units="in"
     showgrid="false"
     inkscape:zoom="2.3599982"
     inkscape:cx="221.39847"
     inkscape:cy="116.52551"
     inkscape:window-width="2880"
     inkscape:window-height="1694"
     inkscape:window-x="-11"
     inkscape:window-y="-11"
     inkscape:window-maximized="1"
     inkscape:current-layer="svg3" />
  <path
     id="Selección"
     fill="none"
     stroke="black"
     stroke-width="1"
     d="m 94.006233,0.72953712 c 10.139997,-1.3 23.079997,-0.53 32.999997,1.92999998 0,0 17.42,5.47 17.42,5.47 0,0 22.58,-6.58 22.58,-6.58 23.97,-4.47 47.85,0.42 64.91,18.7399999 7.48,8.03 13.96,20.42 16.94,31 0,0 4.75,19.83 4.75,19.83 0,0 16.23,15.17 16.23,15.17 13.32,14.910003 19.4,30.090003 19.17,50.000003 -0.21,17.23 -8.53,33.57 -20.09,46 0,0 -15.31,14.29 -15.31,14.29 -1.77,2.41 -2.15,7.59 -2.81,10.71 -1.32,6.23 -3.5,14.22 -6.1,20 -8.45,18.76 -22.33,32.99 -42.69,38.11 -9.35,2.34 -14.54,2 -24,1.89 -7.01,-0.09 -15.31,-1.91 -22,-4.03 -2.57,-0.81 -9.45,-3.82 -11.42,-3.81 0,0 -15.58,4.96 -15.58,4.96 -12,3.16 -15.94,2.94 -28,2.88 -26.649997,-0.13 -47.809997,-17.96 -57.549997,-42 -2.22,-5.48 -3.89,-11.21 -5.05,-17 -0.49,-2.45 -1.45,-9.15 -2.42,-10.91 0,0 -16.69,-16.09 -16.69,-16.09 -13.3900001,-15.39 -19.5200001,-29.6 -19.2900001,-50 0.21,-17.69 9.5,-34.230003 21.1700001,-47.000003 0,0 14.23,-13.17 14.23,-13.17 1.77,-2.52 1.68,-5.86 2.21,-8.83 0.89,-4.97 2.42,-11.3 4.2,-16 9.61,-25.28 25.25,-40.5799999 52.19,-45.55999988 z M 135.00623,12.289537 c -16.34,-3.6899999 -13.79,-5.0299999 -32,-4.9999999 -25.179997,0.04 -43.589997,15.3199999 -52.989997,37.9999999 -2.64,6.37 -4.69,13.09 -5.01,20 0,0 14,-6.75 14,-6.75 0,0 15,-6.44 15,-6.44 0,0 20,-6.66 20,-6.66 0,0 19.999997,-17.49 19.999997,-17.49 0,0 21,-15.66 21,-15.66 z m 109,53 c -0.38,-8.08 -3.2,-16.77 -6.76,-24 -10.19,-20.69 -27.68,-33.9599999 -51.24,-33.9999999 -18.21,-0.03 -15.66,1.31 -32,4.9999999 0,0 20,14.89 20,14.89 0,0 21,18.18 21,18.18 0,0 22,7.35 22,7.35 0,0 27,12.58 27,12.58 z m -62,-22 c -5.55,-7.12 -18.99,-16.53 -27,-21.13 -3.25,-1.86 -8.21,-5.07 -12,-4.32 -2.51,0.5 -9.61,4.63 -12,6.14 -7.45,4.74 -18.67,12.47 -24,19.31 32.02,-4.23 42.98,-4.23 75,0 z m -53,4.28 c -7.02,1.01 -25.46,2.16 -30.959997,5.03 -4.1,2.13 -11.88,12.61 -14.89,16.69 -10.45,14.19 -19.38,29.71 -26.14,46.000003 -1.95,4.71 -6.22,15.17 -5.65,20 0.55,4.64 5.76,17.37 7.87,22 6.55,14.35 13.67,27.31 23.14,40 3.13,4.18 10.69,14.65 14.67,17.15 2.59,1.62 6.909997,2.25 9.959997,2.85 0,0 25,3 25,3 15.2,0.17 27.86,0.24 43,-1.87 4.14,-0.58 13.66,-1.91 16.96,-3.98 3.7,-2.32 10.31,-11.34 13.17,-15.15 11.19,-14.93 17.95,-27.07 25.57,-44 2.3,-5.12 7.56,-17.7 6.94,-23 -0.59,-4.99 -6.06,-18.11 -8.39,-23 -6.38,-13.420003 -13.28,-25.890003 -21.96,-38.000003 -2.86,-3.99 -11.77,-15.82 -15.38,-18.15 -3.48,-2.24 -13.49,-3.37 -17.91,-3.98 -12.67,-1.76 -32.35,-2.76 -45,-1.59 z m -44.999997,8.72 c -10.56,2.41 -20.43,7.31 -30,12.26 -6.53,3.38 -10.85,4.84 -11,12.74 -0.16,9.13 0.2,31.720003 5,39.000003 4.7,-13.55 11.93,-27.940003 19.69,-40.000003 0,0 16.31,-24 16.31,-24 z m 121.999997,0 c 0,0 12,19 12,19 0,0 14.68,25.000003 14.68,25.000003 0,0 9.32,20 9.32,20 3.33,-12.57 4.03,-24.110003 4,-37.000003 0,-2.36 0.22,-5.61 -1.02,-7.68 -1.74,-2.9 -7.93,-5.99 -10.98,-7.61 -10.56,-5.64 -16.78,-7.97 -28,-11.71 z m -169.999997,25 c -6.76,3.95 -10.04,7.94 -14.89,14 -18.7700001,24.060003 -18.9700001,52.820003 0,77.000003 4.2,5.5 8.68,10.67 14.89,14 0,-12.52 0.37,-20.54 2.61,-33 0,0 4.04,-19 4.04,-19 0,0 -4.22,-20 -4.22,-20 -2.25,-13.43 -2.43,-19.590003 -2.43,-33.000003 z m 217.999997,0 c 0,0 -2.15,24.000003 -2.15,24.000003 0,0 -5.5,29 -5.5,29 0,0 4.04,19 4.04,19 2.12,11.76 2.61,21.13 2.61,33 6.23,-3.34 10.67,-8.49 14.99,-14 24.49,-31.26 15.34,-66.93 -13.99,-91.000003 z m -115,19.460003 c 10.65,-1.470003 22.24,1.69 29.82,9.63 15.95,16.73 10.25,44.95 -10.82,54.23 -5.34,2.35 -9.25,2.8 -15,2.67 -27.59,-0.64 -40.82,-32.44 -25.21,-53.99 5.22,-7.2 12.77,-10.66 21.21,-12.54 z m -90.999997,46.54 c -4.84,7.33 -5.06,28.87 -5,38 0.06,9.27 3.33,9.51 11,13.99 8.07,4.71 20.88,9.93 30,12.01 0,0 -11.97,-17 -11.97,-17 -7.49,-10.96 -20.64,-34.44 -24.03,-47 z m 193.999997,0 c 0,0 -12.42,26 -12.42,26 0,0 -12.61,21 -12.61,21 0,0 -11.97,17 -11.97,17 8.1,-1.27 22.75,-7.86 30,-12 2.62,-1.5 7.66,-4.05 9.4,-6.33 1.77,-2.31 1.58,-4.92 1.6,-7.67 0.09,-13.2 -0.59,-25.13 -4,-38 z m -195.999997,55 c -2.33,6.37 3.75,20.08 6.76,26 2.68,5.29 5.41,9.57 9.41,14 12.98,14.36 27.29,18.03 45.829997,18 13.03,-0.02 15.6,-2.4 27,-5 0,0 -20,-14.89 -20,-14.89 0,0 -20.999997,-18.18 -20.999997,-18.18 0,0 -21,-6.98 -21,-6.98 0,0 -27,-12.95 -27,-12.95 z m 197.999997,0 c 0,0 -13,6.74 -13,6.74 0,0 -18,7.45 -18,7.45 0,0 -18,5.74 -18,5.74 0,0 -21,18.18 -21,18.18 0,0 -20,14.89 -20,14.89 16.64,3.8 13.23,5.03 32,5 23.77,-0.04 40.94,-13.09 51.24,-34 3.56,-7.23 6.38,-15.92 6.76,-24 z m -136,22 c 1.27,4.69 9.97,10.4 14,13.29 5.05,3.62 17.89,13.3 24,12.28 3.25,-0.55 9.09,-4.39 12,-6.26 7.88,-5.08 18.41,-11.86 24,-19.31 -20.53,3.69 -53.81,4.97 -74,0 z"
     style="fill:#ffffff;fill-opacity:1;stroke:none" />
</svg>
