<svg
   xmlns="http://www.w3.org/2000/svg"
   viewBox="0 0 450.31323 449.79922">
  <path
     d="m 209.81324,0.50922116 c 0,0 -18,2.07000004 -18,2.07000004 -12.39,1.59 -30.19,6.21 -42,10.4099998 -60.320004,21.49 -109.890004,68.67 -133.550004,128.309999 -36.15,91.09 -8.6700003,196.7 67.55,258.54 20.770004,16.85 44.650004,29.71 70.000004,38.13 17.4,5.78 42.71,11.11 61,11.33 0,0 18,0 18,0 29.4,-0.05 71.43,-11.01 97,-25.42 18.99,-10.7 35.14,-21.45 51,-36.62 34.23,-32.74 57.02,-75.43 65.42,-121.96 1.66,-9.15 3.57,-22.83 3.58,-32 0,0 0,-16 0,-16 -0.15,-12.6 -2.84,-29.61 -5.58,-42 -18.42,-83.519999 -84.68,-150.929999 -168.42,-169.4199988 -12.52,-2.77 -30.28,-5.56000004 -43,-5.37000004 0,0 -23,0 -23,0 z m -50,124.78999884 c -6.57,0 -16.79,-0.84 -21.73,4.23 -4.41,4.53 -5.19,17.48 -5.27,23.77 -0.27,23.8 1.6,57.8 -23,71 5.6,4.86 9.28,7.56 13.45,14 7.89,12.17 8.68,26.06 9.64,40 0,0 0.91,12 0.91,12 0.01,6.95 -0.46,23.57 3.65,28.89 4.42,5.72 15.72,5.11 22.35,5.11 0,0 0,20 0,20 -0.13,6.53 -1.01,6.48 -7,7.16 0,0 -6,0.75 -6,0.75 -11.32,0.64 -27.25,-3.79 -34.47,-12.92 -8.65,-10.93 -8.72,-25.79 -9.62,-38.99 0,0 -0.83,-8 -0.83,-8 0,0 0.84,-9 0.84,-9 0,0 -0.91,-10 -0.91,-10 -0.3,-10.49 -1.82,-24.01 -12.010004,-29.59 -4.62,-2.52 -10.8,-3.3 -16,-3.41 0,0 0,-31 0,-31 5.62,-0.74 13.35,-1.3 17.96,-4.65 9.010004,-6.55 9.620004,-21.17 10.080004,-31.35 0,0 0.96,-11 0.96,-11 0,0 0.91,-19 0.91,-19 0.78,-11.2 1.41,-23.76 8.62,-33 9.03,-11.589999 24.86,-13.029999 38.47,-12.999999 7.73,0.01 8.94,-0.13 9,7.999999 0,0 0,20 0,20 z m 217,84 c 0,0 0,31 0,31 -7.09,0.94 -15.49,1.91 -20.79,7.21 -6.02,6.02 -7.11,18.59 -7.21,26.79 0,0 -1.93,36 -1.93,36 -0.93,10.08 -2.39,20.65 -8.68,28.99 -8.63,11.43 -25.16,13.04 -38.39,13.01 -7.73,-0.01 -8.94,0.13 -9,-8 0,0 0,-20 0,-20 6.72,0 17.72,0.19 22.44,-5.21 4.12,-4.7 4.55,-18.44 4.56,-24.79 0,0 1.04,-21 1.04,-21 0,0 0,-9 0,-9 1.68,-16.01 8.03,-30.15 21.96,-39 -5.33,-4.63 -10.81,-8.85 -14.52,-15 -5.92,-9.81 -7.52,-33.12 -8.39,-45 0,0 -1.81,-25 -1.81,-25 -0.48,-3.68 -0.42,-6.71 -2.93,-9.79 -4.39,-5.38 -15.88,-5.21 -22.35,-5.21 0,0 0,-20 0,-20 0.14,-7.329999 1.69,-6.519999 8,-7.169999 0,0 6,-0.65 6,-0.65 12.53,0 25.88,3.749999 33.84,13.909999 7.89,10.06 7.68,18.99 8.2,30.91 0,0 0.96,12 0.96,12 0,0 0.93,23 0.93,23 0.9,9.78 2.08,22.42 11.07,28.28 4.4,2.86 11.7,2.77 17,3.72 z m -217,-1.66 c 7.72,-0.9 14.41,-0.09 19.35,6.7 7.23,9.94 2.11,25.39 -10.35,27.63 -24.02,4.32 -31.78,-28.19 -9,-34.33 z m 60,0.05 c 6.85,-0.93 13.63,-0.72 18.61,4.8 8.2,9.08 5.07,26.2 -7.61,29.28 -6.58,1.6 -15.18,-0.1 -19.58,-5.52 -2.7,-3.33 -3.32,-6.8 -3.4,-10.95 -0.19,-8.93 3.17,-14.77 11.98,-17.61 z m 62,-0.05 c 7.51,-0.87 14.34,0.36 19.2,6.75 7.76,10.19 1.45,25.08 -9.2,27.52 -24.48,5.61 -33.51,-27.93 -10,-34.27 z"
     fill="#fff" />
</svg>
