<svg
   xmlns="http://www.w3.org/2000/svg"
   viewBox="0 0 1211.0044 599.19221"
   version="1.1">
  <path d="m 438.47961,202.68936 c 0,0 0,-18 0,-18 0,0 1,-15 1,-15 0,0 0,-30 0,-30 0.01,-3.58 0.69,-15.17 2.17,-17.96 3.12,-5.87 9.06,-6.03 14.83,-6 0,0 15,0 15,0 0,0 12,0.96 12,0.96 0,0 30,0 30,0 0,0 18,1 18,1 -1.78,-6.08 -14.07,-18.060002 -19,-23.000002 -18.6,-18.63 -34.83,-32.03 -57,-46.22 -96.77,-61.94 -229.8,-65.16 -327,-2.24 -17.42,11.27 -36.949998,27.11 -50.829998,42.46 -2.96,3.27 -13.29,14.530002 -14.26,18.000002 -0.76,2.67 0.68,11.8 1.04,15 0,0 4.9,38 4.9,38 0,0 3.3,27 3.3,27 0.57,4.71 1.18,10.27 5.06,13.49 4.4,3.66 9.73,2.22 14.79,1.67 0,0 28.999998,-3.74 28.999998,-3.74 0,0 26,-3.27 26,-3.27 2.92,-0.35 9.53,-0.86 11.91,-2.17 2.82,-1.55 7.06,-7.34 9.38,-9.98 0,0 15.71,-15.71 15.71,-15.71 18.58,-16.16 36.72,-25.07 60,-32.27 8.29,-2.56 23.33,-5.34 32,-6.02 0,0 9,0 9,0 3.45,-0.32 5.37,-1.08 9,-0.82 0,0 25,2.25 25,2.25 28.69,4.25 55.79,16.53 79,33.72 19.03,14.11 30.61,31.11 40,38.85 z m 257,-103.000002 c 0,0 39,2.000002 39,2.000002 0,0 12,1 12,1 0,0 9,0 9,0 0,0 8,0.96 8,0.96 7.41,0.32 20.31,-0.59 24.85,6.14 3.9,5.77 1.24,13.41 1.15,19.9 0,0 -0.91,12 -0.91,12 0,0 -1.09,24 -1.09,24 0,0 -1,21 -1,21 8.25,-5.9 15.57,-15.81 33,-27.81 26.91,-18.52 57.34,-28.77 89.91,-30.28 0,0 9.09,-0.74 9.09,-0.74 0,0 8.28,0.67 8.28,0.67 15.05,0.86 22.02,1.87 36.72,5.39 0,0 18,5.23 18,5.23 0,0 15,-2.05 15,-2.05 0,0 30.99999,-5.33 30.99999,-5.33 0,0 25,-4.28 25,-4.28 4.16,-0.83 8.5,-1.44 11.3,-5.01 3.37,-4.29 2.43,-8.89 1.62,-13.79 0,0 -4.33,-25.000002 -4.33,-25.000002 0,0 -6.51,-38 -6.51,-38 -0.58,-3.41 -1.9,-14.16 -3.82,-16.36 -2.09,-2.41 -10.91,-5.49 -14.26,-6.92 -11.25,-4.8 -28.08,-10.25 -39.99999,-13.0700003 -82.63,-19.5199997 -172.84,-6.42 -244,41.0200003 -17.25,11.5 -23.37,16.41 -39,29.91 -5.54,4.78 -14.95,12.97 -18,19.42 z m 372.99999,-61 c 0,0 12.08,69.000002 12.08,69.000002 1.12,6.65 5.08,20.14 1.03,25.81 -4.08,5.72 -15.54,6.38 -22.11,7.32 0,0 -54,8.87 -54,8.87 2.82,4.9 10.39,8.85 15,12.42 7.11,5.52 16.79,14.74 22.56,21.58 28.71,34.04 39.65,73.15 39.44,117 -0.03,5.97 -1.25,15.01 -2.25,21 -5.05,30.34 -15.8,54.63 -34.64,79 -5.48,7.09 -13.4,15.83 -20.11,21.71 -3.43,3.01 -13.12,10.25 -15.07,13.38 0,0 -6.21,19.91 -6.21,19.91 0,0 -11.71999,42 -11.71999,42 -1.77,6.12 -4.75,12.89 -0.77,18.81 2.76,4.12 7.34,4.91 11.76999,6.19 0,0 27,7.58 27,7.58 0,0 32,9.08 32,9.08 3.45,1.08 13.92,4.38 17,3.74 4.82,-1 19.6,-13.47 24,-17.15 21.11,-17.69 39.36,-38.59 54.98,-61.25 26.71,-38.78 44.06,-86.3 49.74,-133 0,0 1.37,-20 1.37,-20 0,0 0.91,-10 0.91,-10 0.79,-67.47 -17.31,-135.49 -58.13,-190 -16.75,-22.380002 -35.12,-40.840002 -57.87,-57.140002 -6.32,-4.53 -19,-13.63 -26,-15.86 z M 606.47961,201.68936 c -6.83,-4.9 -12.16,-12.55 -17.59,-19 0,0 -26.82,-32 -26.82,-32 -3.07,-3.68 -12.43,-15.79 -15.88,-17.6 -2.92,-1.53 -7.45,-1.39 -10.71,-1.4 0,0 -35,0 -35,0 0,0 -16,-1 -16,-1 0,0 -14,0 -14,0 -5.43,0.01 -10.36,-0.18 -13.57,5.1 -2.93,4.82 -2.43,15.23 -2.43,20.9 0,0 0,29 0,29 0,0 -1,15 -1,15 0,0 0,15 0,15 0.15,8.88 6.32,13.66 11.95,20 0,0 33.1,37 33.1,37 0,0 15.49,18 15.49,18 1.7,2.1 5.03,6.31 5.3,9 0.41,4.22 -7.35,11.73 -10.09,15 0,0 -29.75,36 -29.75,36 0,0 26,3.17 26,3.17 0,0 33,3.83 33,3.83 6.25,0.54 22.4,1.39 26.66,5.42 5.68,5.36 2.52,20.29 1.62,27.58 0,0 -8.28,73 -8.28,73 5.85,-3.28 11.38,-11.7 15.75,-17 0,0 32.25,-39 32.25,-39 3.1,6.87 18.93,24.91 24.6,32 13.73,17.17 27.84,34.45 43.57,49.85 0,0 7.83,7.16 7.83,7.16 6.07,5.93 19.9,19.65 27,22.99 0,0 -1,-13 -1,-13 0,0 -1,-24 -1,-24 0,0 -1,-14 -1,-14 -0.08,-7.28 -2.75,-19.19 1.65,-24.89 4.63,-6 13.66,-4.86 20.35,-5.15 0,0 13,-0.96 13,-0.96 0,0 23,-1 23,-1 0,0 16,-1 16,-1 0,0 31,-2 31,-2 0,0 -26,-22.04 -26,-22.04 -15.89,-15.2 -29.42,-32.2 -43.58,-48.96 0,0 -33.15,-39 -33.15,-39 -5.01,-5.85 -12.44,-15.73 -18.27,-20 0,0 20.42,-25 20.42,-25 0,0 35.18,-43 35.18,-43 0,0 15.48,-19 15.48,-19 2.28,-2.75 6.81,-7.87 8.07,-11 1.43,-3.57 1.62,-19.31 1.94,-24 0,0 2,-34 2,-34 0,0 0.91,-10 0.91,-10 0.07,-6.31 1.12,-13.23 -5.04,-17.15 -3.35,-2.12 -17.46,-2.79 -21.96,-2.85 0,0 -13,-1 -13,-1 0,0 -23,-1 -23,-1 0,0 -11,-1.16 -11,-1.16 0,0 -8,0 -8,0 -3.26,-0.32 -7.78,-1.48 -10.91,0 -2.56,0.76 -5.21,4.12 -7.09,6.16 0,0 -14.75,17 -14.75,17 0,0 -32.4,39 -32.4,39 -5.26,5.98 -17.55,18.85 -20.85,25 z m -557.999998,-76 c -8.7,15.55 -17.8,30.41 -24.55,47 -24.00000035,58.97 -30.3800004,130.02 -15.3200004,192 0,0 5.8500004,21 5.8500004,21 0.95,3.08 2.03,8.16 4.01,10.59 2.86,3.48 15.32,6.82 20.01,8.41 0,0 46,16.34 46,16.34 6.55,2.28 15.24,7.17 21.809998,2.65 5.05,-3.46 9.95,-21.57 12.38,-27.99 0,0 12.14,-34 12.14,-34 0,0 4.84,-15 4.84,-15 0.27,-3.28 -2.16,-10.25 -2.96,-14 -1.79,-8.38 -4.11,-21.58 -4.21,-30 -0.27,-23.34 1.56,-40.53 8.43,-63 0,0 11.57,-30 11.57,-30 0,0 -59.999998,7.79 -59.999998,7.79 -6.52,1.1 -17.52,4.17 -22.89,0 -5.79,-4.95 -5.53,-16.67 -6.53,-23.79 0,0 -6.74,-53 -6.74,-53 0,0 -1.84,-15 -1.84,-15 0,0 -2,0 -2,0 z m 95.999998,243 c 0,0 -19.58,54 -19.58,54 -2.45,6.55 -4.79,17.53 -11.42,20.82 -5.3,2.63 -18.409998,-3.39 -23.999998,-5.41 0,0 -63,-22.41 -63,-22.41 1.46,7.78 11.61,25.69 16,33 16.22,27.03 34.64,49.88 57.999998,71.07 45.72,41.49 104.71,68.81 166,76.65 17.05,2.17 33.83,2.31 51,2.28 0,0 21,-1.85 21,-1.85 45,-5.37 90.5,-25.16 128,-50.15 19.45,-12.96 34.43,-25.35 52,-40.58 4.63,-4.01 20.39,-18.73 22.57,-23.42 1.33,-2.87 1.42,-6.84 1.85,-10 0,0 2.74,-26 2.74,-26 0,0 4.12,-36 4.12,-36 0,0 2.68,-26 2.68,-26 -0.52,-9.09 -7.15,-11.19 -14.96,-11.93 0,0 -50,-5.35 -50,-5.35 -4.68,-0.56 -17.25,-3.22 -20.96,-1.03 -2.4,1.41 -7.44,7.86 -9.43,10.31 0,0 -16.78,20 -16.78,20 -15.1,16.69 -33.84,32.21 -52.83,44.31 -29.16,18.56 -58.55,27.09 -93,26.69 -6.59,-0.08 -17.36,-1.92 -24,-3.2 -32.98,-6.32 -59.74,-19.93 -85,-42.09 -9.62,-8.43 -20.36,-21.03 -27.49,-31.71 0,0 -13.51,-22 -13.51,-22 z m 916.99999,187 c -4.2,-2.99 -18.34,-6.39 -24,-7.88 0,0 -39.99999,-11.24 -39.99999,-11.24 -6.5,-1.72 -20.61,-4.38 -24.26,-9.92 -3.92,-5.95 0.71,-15.66 2.38,-21.96 0,0 15.88,-57 15.88,-57 0,0 -28,10.97 -28,10.97 -21.34,6.79 -38.66,9.29 -61,9.03 -12.72,-0.15 -33.03,-5.27 -45,-9.81 0,0 -23,-9.99 -23,-9.99 -2.39,-0.33 -7.39,-0.23 -10,0 0,0 -14,0.8 -14,0.8 0,0 -24,1.09 -24,1.09 0,0 -10,0.91 -10,0.91 0,0 -19,1.04 -19,1.04 0,0 -10,0 -10,0 0,0 -8,0.92 -8,0.92 -6.37,0.28 -12.66,-0.56 -16.31,6.13 -2.64,4.83 -1.33,8.92 -0.75,13.91 0,0 0,12 0,12 0,0 1.06,11 1.06,11 0,0 1,21 1,21 0.02,3.52 0.3,13.78 1.99,16.54 2.03,3.3 15.09,11.52 19.01,14.13 16.86,11.22 39.21,23.41 58,30.93 25.44,10.18 51.6,17.49 79,19.49 0,0 10,0.91 10,0.91 0,0 24,0 24,0 0,0 12,-0.91 12,-0.91 46.82,-3.27 92.76999,-17.95 132.99999,-42.09 z"
     fill="#fff" />
</svg>
