<svg
   xmlns="http://www.w3.org/2000/svg"
   viewBox="0 0 1004.3099 720.20709">
  <path
     d="m 457.33051,1.2270987 c -5.93,5.11 -4.14,14.8600003 -4.14,21.9800003 0,0 0,57 0,57 0.02,11.73 1.82,14.98 14,15 0,0 78,0 78,0 11.12,-0.02 13.86,-2.6 14,-14 0,0 0,-66 0,-66 -0.02,-10.6900003 -0.2,-14.98000034 -12,-15.00000034 0,0 -61,0 -61,0 -6.67,0 -23.47,-0.89 -28.86,1.02000004 z m -245.1,112.7200013 c -7.17,4.18 -5.04,13.94 -5.04,21.26 0,0 0,60 0,60 0.02,10.32 1.25,12.98 12,13 0,0 81,0 81,0 10.75,-0.02 11.98,-2.68 12,-13 0,0 0,-69 0,-69 -0.02,-11.02 -1.98,-12.98 -13,-13 0,0 -57,0 -57,0 -6.89,0 -24.28,-0.66 -29.96,0.74 z m 124,0 c -7.17,4.18 -5.04,13.94 -5.04,21.26 0,0 0,61 0,61 0,2.48 -0.19,5.73 1.02,7.94 3.23,5.91 16.01,4.06 21.98,4.06 0,0 70,0 70,0 10.75,-0.02 11.98,-2.68 12,-13 0,0 0,-69 0,-69 -0.01,-5.85 0.18,-11.45 -7,-12.92 0,0 -6,0 -6,0 0,0 -57,0 -57,0 -6.89,-0.08 -24.28,-0.74 -29.96,0.66 z m 122.98,0 c -6.42,3.59 -6.01,7.64 -6.02,14.26 0,0 0,65 0,65 0.02,11.63 0.66,14.98 13,15 0,0 80,0 80,0 10.46,-0.02 12.86,-2.09 13,-13 0,0 0,-66 0,-66 -0.02,-11.99 -1.19,-15.98 -14,-16 0,0 -57,0 -57,0 -6.82,0 -23.29,-0.65 -28.98,0.74 z m 323.98,24.26 c -7.43,11.87 -14.63,20.8 -20.69,34 -19.34,42.1 -26.68,93.03 -5.55,136 2.52,5.14 4.9,10.33 8.24,15 -22.02,9.34 -46.82,16.96 -71,17 0,0 -53,0 -53,0 0,0 -120,0 -120,0 0,0 -486.000004,0 -486.000004,0 -5.09,0.01 -6.99,0 -12,1.43 -3.52,1 -5.9,1.96 -9,3.96 -16.8200001,10.85 -14.03000011,28.36 -14.00000011,45.61 0,0 0.96000001,13 0.96000001,13 0.79,18.15 2.62,36.05 5.63,54 7.9300001,47.31 22.0300001,94.63 46.8600001,136 10.4,17.33 25.82,38.19 40.55,51.91 14.270004,13.3 29.850004,24.51 47.000004,33.78 34.3,18.54 86.22,30.83 125,35.46 0,0 35,3.85 35,3.85 0,0 9,0 9,0 0,0 12,1 12,1 0,0 60,0 60,0 0,0 11,-0.96 11,-0.96 0,0 58,-5.77 58,-5.77 111.47,-16.07 213.69,-64.04 289.83,-148.27 31.4,-34.73 56.52,-74.51 77.91,-116 0,0 9.5,-20 9.5,-20 0,0 16.16,-37 16.16,-37 4.3,-10.58 3.61,-13.93 13.6,-14 0,0 13,0 13,0 5.99,-0.07 15.93,-1.57 22,-2.59 36.53,-6.14 69.27,-24.64 91.63,-54.41 6.06,-8.07 18.46999,-29.15 19.46999,-38.99 0.59,-5.9 -12.42999,-13.27 -17.09999,-16 -16.5,-9.64 -46.87,-15.98 -66,-16.01 0,0 -34,1.17 -34,1.17 -3.15,0.3 -12.27,2.23 -14.69,0.77 -2.63,-1.59 -3.24,-8.89 -4.04,-11.94 -2.63,-9.96 -5.93,-19.77 -10.52,-29 -11.52,-23.21 -25.48,-39.86 -45.75,-56 -6.72,-5.34 -20.91,-14.69 -29,-17 z m -693.810004,89.74 c -6.39,4.2 -4.19,14.52 -4.19,21.26 0,0 0,60 0,60 0,2.34 -0.13,5.82 0.74,7.96 2.89,7.11 15.870004,5.04 22.260004,5.04 0,0 69,0 69,0 10.47,-0.02 12.98,-2.53 13,-13 0,0 0,-69 0,-69 -0.02,-10.32 -1.25,-12.98 -12,-13 0,0 -59,0 -59,0 -6.69,0 -24.400004,-0.67 -29.810004,0.74 z m 121.870004,0.28 c -1.5,1.17 -2.01,1.16 -3.04,3.04 -1.62,2.96 -1.02,14.95 -1.02,18.94 0,0 0,59 0,59 0,2.34 -0.13,5.82 0.74,7.96 2.89,7.11 15.87,5.04 22.26,5.04 0,0 69,0 69,0 11.08,-0.02 12.98,-1.92 13,-13 0,0 0,-70 0,-70 -0.02,-9.82 -2.18,-11.98 -12,-12 0,0 -60,0 -60,0 -6.84,0 -23.33,-0.91 -28.94,1.02 z m 124,0 c -1.5,1.17 -2.01,1.16 -3.04,3.04 -1.62,2.96 -1.02,14.95 -1.02,18.94 0,0 0,59 0,59 0,2.34 -0.13,5.82 0.74,7.96 2.89,7.11 15.87,5.04 22.26,5.04 0,0 69,0 69,0 11.09,-0.02 12.98,-1.91 13,-13 0,0 0,-70 0,-70 -0.02,-9.53 -2.47,-11.98 -12,-12 0,0 -60,0 -60,0 -6.84,0 -23.33,-0.91 -28.94,1.02 z m 122.08,0 c -5.93,5.11 -4.14,14.86 -4.14,21.98 0,0 0,57 0,57 0.02,11.73 1.82,14.98 14,15 0,0 78,0 78,0 11.12,-0.02 13.86,-2.6 14,-14 0,0 0,-66 0,-66 -0.02,-11.63 -0.66,-14.98 -13,-15 0,0 -60,0 -60,0 -6.67,0 -23.47,-0.89 -28.86,1.02 z m 123.97,0 c -6.15,4.98 -4.11,14.8 -4.11,21.98 0,0 0,59 0,59 0,2.34 -0.13,5.82 0.74,7.96 2.89,7.11 15.87,5.04 22.26,5.04 0,0 69,0 69,0 11.02,-0.02 12.98,-1.98 12.9,-13 0,0 0,-70 0,-70 0.1,-1.58 0.16,-4.55 0,-6 -1.78,-6.14 -6.76,-5.99 -11.9,-6 0,0 -60,0 -60,0 -6.74,0 -23.41,-0.9 -28.89,1.02 z m -398.11,220.28 c 12.3,-1.23 22.91,2.3 30.37,12.7 13.16,18.36 2.25,45.36 -20.37,48.7 -32.56,4.81 -49.63,-36.98 -23,-56.07 3.97,-2.84 8.26,-4.4 13,-5.33 z"
     fill="#fff" />
</svg>
