<?xml version="1.0" encoding="UTF-8" standalone="no"?>
<svg
   version="1.1"
   width="512"
   height="496.76257"
   id="svg4"
   xmlns="http://www.w3.org/2000/svg"
   xmlns:svg="http://www.w3.org/2000/svg">
  <path
     fill-rule="evenodd"
     clip-rule="evenodd"
     d="M 0.80022617,302.2736 44.722383,111.20076 c 2.265915,-9.8478 9.242169,-18.520771 18.416939,-22.90414 L 241.16764,3.2355095 c 9.16233,-4.425337 18.88687,-4.20123315 29.55252,0 L 448.76945,88.250203 c 9.17474,4.383366 16.15103,13.056337 18.42148,22.907757 l 43.98501,191.0701 c 2.27042,9.85418 -0.22409,20.67648 -6.57733,28.5744 L 381.42126,484.0341 c -6.35784,7.88699 -16.43609,12.68933 -26.61813,12.68204 l -197.60461,0.0464 c -10.1857,0.004 -20.26392,-4.8096 -26.61815,-12.70389 L 7.3566275,330.84801 C 0.42713317,322.18205 -1.2119793,312.55833 0.80022617,302.2736 Z M 246.79085,319.80394 216.82736,373.9387 c 26.58652,8.50833 52.79025,8.94541 78.55255,0.0747 l -30.01339,-54.23267 c -5.39655,-7.60598 -14.5607,-6.83371 -18.57567,0.0232 z m -44.75749,-30.41461 -60.88366,10.33239 c 9.39495,25.9964 26.96106,47.1854 49.01598,61.33728 l 23.58614,-57.0057 c 2.59773,-8.50266 -2.98671,-15.46082 -11.71846,-14.66397 z m 96.19326,14.31317 23.8422,57.58435 c 22.98031,-14.6398 40.17645,-36.51731 49.16617,-61.76975 l -61.41587,-10.37979 c -8.95468,-0.85678 -14.31399,6.56189 -11.5925,14.56519 z m -63.55795,-50.35065 4.2368,18.39676 17.08626,8.21451 17.03387,-8.19034 4.23279,-18.39676 -11.79309,-14.74258 h -18.97536 z m 83.34076,0.15021 59.67502,17.18707 c 2.72006,-27.39535 -3.98404,-52.78261 -17.76673,-76.66151 l -46.06646,41.22686 c -5.40256,6.32166 -4.97144,14.16118 4.15817,18.24758 z M 198.0526,235.4319 151.73413,194.00343 c -13.74664,22.39363 -20.2596,49.25592 -17.2395,76.8873 l 59.37559,-17.13669 c 7.98035,-3.2283 10.59302,-11.41464 4.18238,-18.32214 z m 92.99174,-28.78058 50.40204,-35.73404 c -19.01468,-18.62151 -43.8306,-30.76944 -70.66162,-34.07277 l 3.50092,61.76972 c 1.32901,10.3702 9.25405,12.02488 16.75866,8.03709 z m -120.91348,-35.75823 50.72865,35.96287 c 8.29727,5.13079 16.17432,-0.35225 16.86051,-8.14295 l 3.50091,-61.8685 c -27.73173,3.79093 -52.1674,15.25945 -71.09007,34.04858 z m 274.6911,142.38579 c -5.04691,-1.63174 -20.74594,-8.58746 -31.14746,-10.13083 -3.20053,-0.25198 -4.83151,1.27518 -6.60364,2.44452 l -5.04022,-0.88205 c -11.30014,35.51429 -35.36713,66.26764 -67.99133,85.53025 l 1.96466,4.76504 c -0.74796,1.98786 -1.86588,3.89404 -0.90924,6.95343 4.44152,10.71076 11.05133,19.13825 16.78589,28.12638 10.64556,17.82681 -10.28269,30.18298 -20.55378,12.26654 -3.94391,-11.01529 -7.34851,-24.74704 -12.20752,-32.67933 -1.79937,-2.65719 -4.00396,-2.99591 -6.02407,-3.65417 l -2.52015,-4.53619 c -36.78668,13.55194 -73.0581,13.21783 -108.84114,-0.27924 l -2.67332,4.8396 c -1.98886,0.53122 -3.90616,1.07455 -5.08356,2.47681 -5.56991,7.08654 -10.10051,26.44455 -13.99461,34.99817 -8.17395,15.73941 -28.41062,4.97653 -21.31807,-10.05729 4.69829,-9.66613 10.80594,-14.64743 18.51469,-31.78448 0.57459,-1.97278 0.0745,-4.99167 -1.05139,-6.67023 l 2.14209,-5.14306 c -31.39543,-18.60132 -56.18616,-48.24784 -68.01552,-84.92743 l -5.14203,0.88205 c -1.19994,-1.30408 -4.15009,-2.59873 -6.781079,-2.39411 -6.296218,0.9133 -13.445175,1.7973 -20.562011,6.04825 -32.849121,19.62112 -44.673828,-22.47818 -4.536186,-19.85742 15.642524,1.02139 21.987312,-1.30219 26.209053,-8.59253 l 4.937393,-1.43646 c -5.532135,-38.32975 3.83156,-75.9458 24.06697,-106.39974 l -3.78015,-3.37491 c -0.23992,-1.47274 -0.55544,-4.87489 -2.36689,-6.80427 -14.87534,-12.70722 -21.08642,-12.68123 -29.764405,-20.01061 -13.66742,-10.70041 0.874565,-29.27458 14.541985,-18.57419 8.09419,6.40076 12.57331,14.43227 26.28366,24.69701 2.77211,1.61389 4.90208,0.96472 7.00891,0.68146 l 4.25694,3.02411 c 21.9706,-23.13912 55.366,-43.27223 98.38581,-47.30335 l 0.27618,-4.98877 c 1.57152,-1.520121 3.33157,-3.705591 3.83154,-6.099671 1.20217,-12.155698 -2.89624,-26.617246 -2.92228,-35.962842 0.21124,-16.959148 22.95433,-17.924477 23.58714,0 0.26578,10.45639 -3.17905,16.021133 -2.9223,35.962842 0.46469,3.17332 2.31949,4.42937 3.85473,5.898061 l 0.27622,5.26501 c 37.50214,3.33158 72.3269,20.47934 97.90594,47.3033 l 4.48478,-3.20151 c 1.52011,0.0907 4.87085,0.5514 7.15908,-0.77922 5.9285,-3.80703 14.79993,-13.20204 23.68897,-22.63053 13.19794,-13.61512 31.93875,2.48809 17.31412,16.35348 -7.31937,6.29363 -16.69996,8.82391 -29.93882,20.13759 -2.19348,2.34268 -2.02719,4.5634 -2.2207,6.67827 l -4.1814,3.75598 c 21.62629,33.6915 30.05017,67.21617 24.57102,106.14371 l 4.76401,1.38604 c 0.85482,1.21268 2.61486,4.15815 5.08755,5.11884 10.27002,3.27441 20.57968,3.35165 34.17511,4.78665 20.53409,2.16736 12.74954,28.71756 -6.98117,22.63104 z"
     id="path2"
     style="fill:#ffffff;fill-opacity:1" />
</svg>
