<svg xmlns="http://www.w3.org/2000/svg" viewBox="0 0 495 550">
	<path fill="none" stroke="#fff" stroke-width="7"
		d="M 232.00,9.42
           C 232.00,9.42 214.00,11.28 214.00,11.28
             196.62,13.62 179.46,18.02 163.00,24.05
             106.80,44.66 59.12,87.51 32.37,141.00
             -7.49,220.73 -0.09,316.52 51.86,389.00
             59.14,399.16 70.04,412.38 79.00,420.96
             105.12,445.99 136.68,465.23 171.00,476.67
             189.51,482.84 208.55,486.67 228.00,488.09
             228.00,488.09 238.00,489.00 238.00,489.00
             283.91,489.53 317.78,482.37 359.00,461.75
             384.35,449.07 407.33,431.09 426.16,410.00
             461.16,370.81 483.25,321.57 487.09,269.00
             487.09,269.00 488.00,257.00 488.00,257.00
             488.00,257.00 488.00,239.00 488.00,239.00
             488.00,239.00 487.09,229.00 487.09,229.00
             483.01,173.21 456.44,115.78 416.00,77.04
             389.23,51.40 357.11,32.36 322.00,20.67
             297.85,12.62 257.21,6.35 232.00,9.42 Z" />
  <path fill="#fff" d="M 247.00,4.00
           C 247.00,4.00 226.74,44.00 226.74,44.00
             226.74,44.00 212.26,72.00 212.26,72.00
             212.26,72.00 173.01,160.00 173.01,160.00
             154.11,205.81 136.74,252.67 122.02,300.00
             122.02,300.00 100.57,374.00 100.57,374.00
             89.87,411.55 81.45,449.72 73.80,488.00
             73.80,488.00 63.00,550.00 63.00,550.00
             68.51,545.69 73.57,537.73 77.87,532.00
             77.87,532.00 100.42,503.00 100.42,503.00
             130.49,464.49 173.16,415.67 211.00,385.40
             233.40,367.48 256.31,351.95 286.00,352.00
             304.31,352.03 319.53,363.57 332.00,376.00
             357.77,401.69 373.70,432.90 389.75,465.00
             389.75,465.00 401.58,489.00 401.58,489.00
             403.48,493.37 406.28,501.22 410.00,504.00
             410.00,504.00 403.58,461.00 403.58,461.00
             403.58,461.00 391.00,392.00 391.00,392.00
             372.65,301.98 344.06,203.74 306.30,120.00
             306.30,120.00 287.74,79.00 287.74,79.00
             287.74,79.00 268.10,41.00 268.10,41.00
             263.91,33.01 252.17,9.36 247.00,4.00 Z
           M 261.00,196.00
           C 261.00,196.00 261.00,171.00 261.00,171.00
             261.00,171.00 234.00,171.00 234.00,171.00
             234.00,171.00 234.00,223.00 234.00,223.00
             234.00,223.00 271.00,204.75 271.00,204.75
             271.00,204.75 290.00,196.00 290.00,196.00
             290.00,196.00 290.00,296.00 290.00,296.00
             289.96,303.49 288.93,313.44 282.90,318.61
             278.73,322.18 274.15,322.54 269.00,323.15
             269.00,323.15 236.00,324.00 236.00,324.00
             228.91,323.97 215.45,322.92 210.39,317.66
             204.26,311.28 204.98,299.20 205.00,291.00
             205.00,288.73 204.78,285.34 206.02,283.39
             207.41,281.22 211.67,279.41 214.00,278.25
             219.73,275.38 228.14,270.67 234.00,269.00
             234.00,269.00 234.00,295.00 234.00,295.00
             234.00,295.00 261.00,295.00 261.00,295.00
             261.00,295.00 261.00,239.00 261.00,239.00
             261.00,239.00 205.00,267.00 205.00,267.00
             205.00,267.00 205.00,166.00 205.00,166.00
             205.20,149.01 211.95,142.08 229.00,142.00
             229.00,142.00 265.00,142.00 265.00,142.00
             268.97,142.01 271.05,141.93 275.00,142.90
             290.69,146.74 290.09,161.84 290.00,175.00
             289.99,177.08 290.13,179.80 288.98,181.61
             287.59,183.78 283.33,185.59 281.00,186.75
             275.27,189.62 266.86,194.33 261.00,196.00 Z" />
</svg>
