<svg xmlns="http://www.w3.org/2000/svg" viewBox="0 0 980 980">
	<path
		fill="#fff"
		d="M 475.00,0.42
           C 469.91,1.15 467.02,0.98 462.00,1.00
             462.00,1.00 434.00,3.28 434.00,3.28
             400.10,7.40 366.42,14.55 334.00,25.35
             206.04,68.01 100.54,163.55 44.31,286.00
             -19.60,425.17 -13.47,589.45 59.31,724.00
             91.67,783.83 137.16,836.85 191.00,878.35
             232.21,910.12 278.83,935.34 328.00,952.34
             366.19,965.56 399.86,972.87 440.00,977.16
             440.00,977.16 461.00,979.00 461.00,979.00
             461.00,979.00 482.00,980.00 482.00,980.00
             482.00,980.00 497.00,980.00 497.00,980.00
             497.00,980.00 519.00,979.00 519.00,979.00
             519.00,979.00 529.00,978.09 529.00,978.09
             567.97,975.36 606.87,967.55 644.00,955.33
             802.30,903.21 924.70,771.64 965.11,610.00
             971.75,583.42 978.96,541.11 979.00,514.00
             979.00,514.00 980.00,499.00 980.00,499.00
             980.00,499.00 979.00,461.00 979.00,461.00
             979.00,461.00 978.09,451.00 978.09,451.00
             975.57,415.04 968.62,379.46 958.02,345.00
             908.65,184.50 781.45,62.46 620.00,17.58
             590.32,9.32 559.70,4.06 529.00,1.91
             529.00,1.91 519.00,1.00 519.00,1.00
             504.48,0.83 489.49,-1.34 475.00,0.42 Z
           M 207.00,281.07
           C 207.00,281.07 270.00,281.07 270.00,281.07
             270.00,281.07 393.00,281.07 393.00,281.07
             393.00,281.07 762.00,281.07 762.00,281.07
             778.71,281.03 789.79,289.50 790.00,307.00
             790.00,307.00 790.00,372.00 790.00,372.00
             790.00,372.00 790.00,672.00 790.00,672.00
             789.99,675.89 790.05,679.24 788.75,683.00
             782.92,699.97 766.40,699.00 752.00,699.00
             752.00,699.00 729.00,699.00 729.00,699.00
             729.00,699.00 527.00,699.00 527.00,699.00
             527.00,699.00 217.00,699.00 217.00,699.00
             199.37,698.97 190.03,689.63 190.00,672.00
             190.00,672.00 190.00,498.00 190.00,498.00
             190.00,498.00 190.00,334.00 190.00,334.00
             190.00,334.00 190.00,312.00 190.00,312.00
             190.00,297.57 189.18,284.83 207.00,281.07 Z
           M 294.00,340.00
           C 297.60,344.98 308.92,354.81 314.00,359.28
             314.00,359.28 341.00,384.09 341.00,384.09
             341.00,384.09 378.00,418.09 378.00,418.09
             378.00,418.09 395.73,435.33 395.73,435.33
             395.73,435.33 405.00,443.09 405.00,443.09
             405.00,443.09 419.00,456.90 419.00,456.90
             419.00,456.90 427.00,463.21 427.00,463.21
             427.00,463.21 438.00,473.28 438.00,473.28
             438.00,473.28 473.00,504.55 473.00,504.55
             477.59,508.22 483.94,513.90 490.00,513.91
             496.60,513.94 502.13,508.34 507.00,504.39
             507.00,504.39 542.00,473.28 542.00,473.28
             542.00,473.28 637.00,386.17 637.00,386.17
             637.00,386.17 649.00,375.27 649.00,375.27
             649.00,375.27 656.90,369.78 656.90,369.78
             656.90,369.78 662.37,363.17 662.37,363.17
             662.37,363.17 672.00,354.01 672.00,354.01
             677.45,348.72 681.42,346.39 686.00,340.00
             686.00,340.00 294.00,340.00 294.00,340.00 Z
           M 251.00,377.00
           C 251.00,377.00 251.00,465.00 251.00,465.00
             251.00,465.00 249.29,480.00 249.29,480.00
             249.29,480.00 248.58,490.00 248.58,490.00
             248.58,490.00 246.29,503.00 246.29,503.00
             246.29,503.00 244.91,519.00 244.91,519.00
             244.91,519.00 244.18,526.00 244.18,526.00
             244.18,526.00 247.00,547.00 247.00,547.00
             247.00,547.00 246.18,565.00 246.18,565.00
             246.18,565.00 250.86,579.00 250.86,579.00
             250.86,579.00 250.86,603.00 250.86,603.00
             258.25,598.40 280.59,577.11 288.00,570.04
             288.00,570.04 319.00,541.83 319.00,541.83
             319.00,541.83 343.00,519.72 343.00,519.72
             343.00,519.72 365.00,499.28 365.00,499.28
             367.30,497.26 372.80,493.28 372.80,490.00
             372.80,486.72 367.30,482.74 365.00,480.72
             365.00,480.72 342.00,459.58 342.00,459.58
             342.00,459.58 321.00,440.17 321.00,440.17
             321.00,440.17 292.01,413.83 292.01,413.83
             292.01,413.83 284.83,406.26 284.83,406.26
             284.83,406.26 278.00,400.87 278.00,400.87
             269.07,392.98 260.74,383.88 251.00,377.00 Z
           M 728.00,377.00
           C 728.00,377.00 693.00,409.17 693.00,409.17
             693.00,409.17 637.00,460.83 637.00,460.83
             637.00,460.83 614.00,481.96 614.00,481.96
             614.00,481.96 607.20,490.00 607.20,490.00
             607.20,490.00 616.00,500.00 616.00,500.00
             616.00,500.00 626.45,510.03 626.45,510.03
             626.45,510.03 631.36,518.44 631.36,518.44
             631.36,518.44 641.00,523.49 641.00,523.49
             641.00,523.49 667.00,546.96 667.00,546.96
             667.00,546.96 699.00,576.09 699.00,576.09
             699.00,576.09 729.00,603.00 729.00,603.00
             729.00,603.00 729.00,470.00 729.00,470.00
             729.00,470.00 730.00,455.00 730.00,455.00
             730.00,455.00 729.00,437.00 729.00,437.00
             729.00,437.00 729.00,403.00 729.00,403.00
             729.00,403.00 728.00,377.00 728.00,377.00 Z
           M 294.00,640.00
           C 294.00,640.00 686.00,640.00 686.00,640.00
             680.94,632.93 658.78,613.87 651.00,606.83
             651.00,606.83 603.00,562.83 603.00,562.83
             603.00,562.83 593.00,553.42 593.00,553.42
             593.00,553.42 572.00,534.00 572.00,534.00
             569.69,531.75 566.64,527.95 563.00,529.16
             560.80,529.90 548.77,540.61 546.00,542.92
             532.00,554.56 514.18,569.77 495.00,570.00
             492.45,570.03 486.32,570.24 484.17,569.41
             481.26,568.28 480.23,565.79 476.00,564.57
             476.00,564.57 463.00,563.36 463.00,563.36
             457.23,561.71 447.85,554.09 443.00,550.20
             443.00,550.20 425.00,535.13 425.00,535.13
             422.98,533.39 418.65,529.24 416.00,529.15
             412.82,529.05 408.17,533.91 406.00,536.01
             406.00,536.01 386.00,554.42 386.00,554.42
             386.00,554.42 364.00,574.91 364.00,574.91
             364.00,574.91 327.00,608.83 327.00,608.83
             320.03,615.14 298.44,633.86 294.00,640.00 Z"/>
</svg>
