<svg xmlns="http://www.w3.org/2000/svg" viewBox="0 0 120 120">
  <path
     fill="#fff"
     d="M 60 0 A 60 60 0 0 0 0 60 A 60 60 0 0 0 60 120 A 60 60 0 0 0 120 60 A 60 60 0 0 0 60 0 z M 72.699219 14.900391 L 95.699219 45.900391 L 89.5 50.5 L 66.5 19.5 L 72.699219 14.900391 z M 58.400391 27.300781 L 88.099609 52 L 83.199219 57.900391 L 53.5 33.199219 L 58.400391 27.300781 z M 47 43.300781 L 82 59.699219 L 78.800781 66.699219 L 43.800781 50.400391 L 47 43.300781 z M 40.400391 60.800781 L 78.199219 68.699219 L 76.599609 76.300781 L 38.800781 68.400391 L 40.400391 60.800781 z M 22.599609 70.599609 L 30.300781 70.599609 L 30.300781 93.800781 L 84.400391 93.800781 L 84.400391 70.599609 L 92.099609 70.599609 L 92.099609 101.5 L 22.599609 101.5 L 22.599609 70.599609 z M 38 78.300781 L 76.599609 78.300781 L 76.599609 86 L 38 86 L 38 78.300781 z "/>
</svg>
